<svg width="344" height="10" viewBox="0 0 344 10" fill="none" xmlns="http://www.w3.org/2000/svg">
<path fill-rule="evenodd" clip-rule="evenodd" d="M1.5 10C1.15753 10 0.82312 9.96558 0.5 9.89999V10H1.5ZM1.5 0H0.5V0.100006C0.82312 0.0344238 1.15753 0 1.5 0ZM1.5 0C4.26141 0 6.5 2.23859 6.5 5C6.5 7.76141 4.26141 10 1.5 10H343.5C340.739 10 338.5 7.76141 338.5 5C338.5 2.23859 340.739 0 343.5 0H1.5ZM15 6H18V4H15V6ZM24 6H30V4H24V6ZM36 6H42V4H36V6ZM48 6H54V4H48V6ZM60 6H66V4H60V6ZM72 6H78V4H72V6ZM84 6H90V4H84V6ZM96 6H102V4H96V6ZM108 6H114V4H108V6ZM120 6H126V4H120V6ZM132 6H138V4H132V6ZM144 6H150V4H144V6ZM156 6H162V4H156V6ZM168 6H174V4H168V6ZM180 6H186V4H180V6ZM192 6H198V4H192V6ZM204 6H210V4H204V6ZM216 6H222V4H216V6ZM228 6H234V4H228V6ZM240 6H246V4H240V6ZM252 6H258V4H252V6ZM264 6H270V4H264V6ZM276 6H282V4H276V6ZM288 6H294V4H288V6ZM300 6H306V4H300V6ZM312 6H318V4H312V6ZM324 6H327V4H324V6Z" fill="black"/>
<path fill-rule="evenodd" clip-rule="evenodd" d="M1.5 10C1.15753 10 0.82312 9.96558 0.5 9.89999V10H1.5ZM1.5 0H0.5V0.100006C0.82312 0.0344238 1.15753 0 1.5 0ZM1.5 0C4.26141 0 6.5 2.23859 6.5 5C6.5 7.76141 4.26141 10 1.5 10H343.5C340.739 10 338.5 7.76141 338.5 5C338.5 2.23859 340.739 0 343.5 0H1.5ZM15 6H18V4H15V6ZM24 6H30V4H24V6ZM36 6H42V4H36V6ZM48 6H54V4H48V6ZM60 6H66V4H60V6ZM72 6H78V4H72V6ZM84 6H90V4H84V6ZM96 6H102V4H96V6ZM108 6H114V4H108V6ZM120 6H126V4H120V6ZM132 6H138V4H132V6ZM144 6H150V4H144V6ZM156 6H162V4H156V6ZM168 6H174V4H168V6ZM180 6H186V4H180V6ZM192 6H198V4H192V6ZM204 6H210V4H204V6ZM216 6H222V4H216V6ZM228 6H234V4H228V6ZM240 6H246V4H240V6ZM252 6H258V4H252V6ZM264 6H270V4H264V6ZM276 6H282V4H276V6ZM288 6H294V4H288V6ZM300 6H306V4H300V6ZM312 6H318V4H312V6ZM324 6H327V4H324V6Z" fill="url(#paint0_linear_509_2180)"/>
<defs>
<linearGradient id="paint0_linear_509_2180" x1="172" y1="0" x2="172" y2="10" gradientUnits="userSpaceOnUse">
<stop offset="0.515525" stop-color="white"/>
<stop offset="0.515625"/>
</linearGradient>
</defs>
</svg>
