<svg width="400" height="10" viewBox="0 0 400 10" fill="none" xmlns="http://www.w3.org/2000/svg">
<path fill-rule="evenodd" clip-rule="evenodd" d="M30 10C29.6575 10 29.3231 9.96558 29 9.89999V10H30ZM30 0H29V0.100006C29.3231 0.0344238 29.6575 0 30 0ZM30 0C32.7614 0 35 2.23859 35 5C35 7.76141 32.7614 10 30 10H372C369.239 10 367 7.76141 367 5C367 2.23859 369.239 0 372 0H30ZM43.5 6H46.5V4H43.5V6ZM52.5 6H58.5V4H52.5V6ZM64.5 6H70.5V4H64.5V6ZM76.5 6H82.5V4H76.5V6ZM88.5 6H94.5V4H88.5V6ZM100.5 6H106.5V4H100.5V6ZM112.5 6H118.5V4H112.5V6ZM124.5 6H130.5V4H124.5V6ZM136.5 6H142.5V4H136.5V6ZM148.5 6H154.5V4H148.5V6ZM160.5 6H166.5V4H160.5V6ZM172.5 6H178.5V4H172.5V6ZM184.5 6H190.5V4H184.5V6ZM196.5 6H202.5V4H196.5V6ZM208.5 6H214.5V4H208.5V6ZM220.5 6H226.5V4H220.5V6ZM232.5 6H238.5V4H232.5V6ZM244.5 6H250.5V4H244.5V6ZM256.5 6H262.5V4H256.5V6ZM268.5 6H274.5V4H268.5V6ZM280.5 6H286.5V4H280.5V6ZM292.5 6H298.5V4H292.5V6ZM304.5 6H310.5V4H304.5V6ZM316.5 6H322.5V4H316.5V6ZM328.5 6H334.5V4H328.5V6ZM340.5 6H346.5V4H340.5V6ZM352.5 6H355.5V4H352.5V6Z" fill="black"/>
<path fill-rule="evenodd" clip-rule="evenodd" d="M30 10C29.6575 10 29.3231 9.96558 29 9.89999V10H30ZM30 0H29V0.100006C29.3231 0.0344238 29.6575 0 30 0ZM30 0C32.7614 0 35 2.23859 35 5C35 7.76141 32.7614 10 30 10H372C369.239 10 367 7.76141 367 5C367 2.23859 369.239 0 372 0H30ZM43.5 6H46.5V4H43.5V6ZM52.5 6H58.5V4H52.5V6ZM64.5 6H70.5V4H64.5V6ZM76.5 6H82.5V4H76.5V6ZM88.5 6H94.5V4H88.5V6ZM100.5 6H106.5V4H100.5V6ZM112.5 6H118.5V4H112.5V6ZM124.5 6H130.5V4H124.5V6ZM136.5 6H142.5V4H136.5V6ZM148.5 6H154.5V4H148.5V6ZM160.5 6H166.5V4H160.5V6ZM172.5 6H178.5V4H172.5V6ZM184.5 6H190.5V4H184.5V6ZM196.5 6H202.5V4H196.5V6ZM208.5 6H214.5V4H208.5V6ZM220.5 6H226.5V4H220.5V6ZM232.5 6H238.5V4H232.5V6ZM244.5 6H250.5V4H244.5V6ZM256.5 6H262.5V4H256.5V6ZM268.5 6H274.5V4H268.5V6ZM280.5 6H286.5V4H280.5V6ZM292.5 6H298.5V4H292.5V6ZM304.5 6H310.5V4H304.5V6ZM316.5 6H322.5V4H316.5V6ZM328.5 6H334.5V4H328.5V6ZM340.5 6H346.5V4H340.5V6ZM352.5 6H355.5V4H352.5V6Z" fill="url(#paint0_linear_522_2556)"/>
<defs>
<linearGradient id="paint0_linear_522_2556" x1="200.5" y1="0" x2="200.5" y2="10" gradientUnits="userSpaceOnUse">
<stop offset="0.515525" stop-color="white"/>
<stop offset="0.515625"/>
</linearGradient>
</defs>
</svg>
