<svg width="400" height="11" viewBox="0 0 400 11" fill="none" xmlns="http://www.w3.org/2000/svg">
<g clip-path="url(#clip0_522_2571)">
<path fill-rule="evenodd" clip-rule="evenodd" d="M30 10.9727C29.6575 10.9727 29.3231 10.9382 29 10.8727V10.9727H30ZM30 0.972656H29V1.07266C29.3231 1.00708 29.6575 0.972656 30 0.972656ZM30 0.972656C32.7614 0.972656 35 3.21124 35 5.97266C35 8.73407 32.7614 10.9727 30 10.9727H372C369.239 10.9727 367 8.73407 367 5.97266C367 3.21124 369.239 0.972656 372 0.972656H30ZM43.5 6.97266H46.5V4.97266H43.5V6.97266ZM52.5 6.97266H58.5V4.97266H52.5V6.97266ZM64.5 6.97266H70.5V4.97266H64.5V6.97266ZM76.5 6.97266H82.5V4.97266H76.5V6.97266ZM88.5 6.97266H94.5V4.97266H88.5V6.97266ZM100.5 6.97266H106.5V4.97266H100.5V6.97266ZM112.5 6.97266H118.5V4.97266H112.5V6.97266ZM124.5 6.97266H130.5V4.97266H124.5V6.97266ZM136.5 6.97266H142.5V4.97266H136.5V6.97266ZM148.5 6.97266H154.5V4.97266H148.5V6.97266ZM160.5 6.97266H166.5V4.97266H160.5V6.97266ZM172.5 6.97266H178.5V4.97266H172.5V6.97266ZM184.5 6.97266H190.5V4.97266H184.5V6.97266ZM196.5 6.97266H202.5V4.97266H196.5V6.97266ZM208.5 6.97266H214.5V4.97266H208.5V6.97266ZM220.5 6.97266H226.5V4.97266H220.5V6.97266ZM232.5 6.97266H238.5V4.97266H232.5V6.97266ZM244.5 6.97266H250.5V4.97266H244.5V6.97266ZM256.5 6.97266H262.5V4.97266H256.5V6.97266ZM268.5 6.97266H274.5V4.97266H268.5V6.97266ZM280.5 6.97266H286.5V4.97266H280.5V6.97266ZM292.5 6.97266H298.5V4.97266H292.5V6.97266ZM304.5 6.97266H310.5V4.97266H304.5V6.97266ZM316.5 6.97266H322.5V4.97266H316.5V6.97266ZM328.5 6.97266H334.5V4.97266H328.5V6.97266ZM340.5 6.97266H346.5V4.97266H340.5V6.97266ZM352.5 6.97266H355.5V4.97266H352.5V6.97266Z" fill="black"/>
<path fill-rule="evenodd" clip-rule="evenodd" d="M30 10.9727C29.6575 10.9727 29.3231 10.9382 29 10.8727V10.9727H30ZM30 0.972656H29V1.07266C29.3231 1.00708 29.6575 0.972656 30 0.972656ZM30 0.972656C32.7614 0.972656 35 3.21124 35 5.97266C35 8.73407 32.7614 10.9727 30 10.9727H372C369.239 10.9727 367 8.73407 367 5.97266C367 3.21124 369.239 0.972656 372 0.972656H30ZM43.5 6.97266H46.5V4.97266H43.5V6.97266ZM52.5 6.97266H58.5V4.97266H52.5V6.97266ZM64.5 6.97266H70.5V4.97266H64.5V6.97266ZM76.5 6.97266H82.5V4.97266H76.5V6.97266ZM88.5 6.97266H94.5V4.97266H88.5V6.97266ZM100.5 6.97266H106.5V4.97266H100.5V6.97266ZM112.5 6.97266H118.5V4.97266H112.5V6.97266ZM124.5 6.97266H130.5V4.97266H124.5V6.97266ZM136.5 6.97266H142.5V4.97266H136.5V6.97266ZM148.5 6.97266H154.5V4.97266H148.5V6.97266ZM160.5 6.97266H166.5V4.97266H160.5V6.97266ZM172.5 6.97266H178.5V4.97266H172.5V6.97266ZM184.5 6.97266H190.5V4.97266H184.5V6.97266ZM196.5 6.97266H202.5V4.97266H196.5V6.97266ZM208.5 6.97266H214.5V4.97266H208.5V6.97266ZM220.5 6.97266H226.5V4.97266H220.5V6.97266ZM232.5 6.97266H238.5V4.97266H232.5V6.97266ZM244.5 6.97266H250.5V4.97266H244.5V6.97266ZM256.5 6.97266H262.5V4.97266H256.5V6.97266ZM268.5 6.97266H274.5V4.97266H268.5V6.97266ZM280.5 6.97266H286.5V4.97266H280.5V6.97266ZM292.5 6.97266H298.5V4.97266H292.5V6.97266ZM304.5 6.97266H310.5V4.97266H304.5V6.97266ZM316.5 6.97266H322.5V4.97266H316.5V6.97266ZM328.5 6.97266H334.5V4.97266H328.5V6.97266ZM340.5 6.97266H346.5V4.97266H340.5V6.97266ZM352.5 6.97266H355.5V4.97266H352.5V6.97266Z" fill="url(#paint0_linear_522_2571)"/>
</g>
<defs>
<linearGradient id="paint0_linear_522_2571" x1="200.5" y1="0.972656" x2="200.5" y2="10.9727" gradientUnits="userSpaceOnUse">
<stop offset="0.515525"/>
<stop offset="0.515625" stop-color="#CAFC5C"/>
</linearGradient>
<clipPath id="clip0_522_2571">
<rect width="400" height="10" fill="white" transform="translate(0 0.972656)"/>
</clipPath>
</defs>
</svg>
