<svg width="400" height="11" viewBox="0 0 400 11" fill="none" xmlns="http://www.w3.org/2000/svg">
<g clip-path="url(#clip0_522_2576)">
<path fill-rule="evenodd" clip-rule="evenodd" d="M29 10.8726C29.3231 10.9382 29.6575 10.9727 30 10.9727H29V10.8726ZM29 1.07267V0.972656H30C29.6575 0.972656 29.3231 1.00709 29 1.07267ZM372 0.972656H30C32.7614 0.972656 35 3.21123 35 5.97266C35 8.73408 32.7614 10.9727 30 10.9727H372C369.239 10.9727 367 8.73408 367 5.97266C367 3.21123 369.239 0.972656 372 0.972656Z" fill="black"/>
<path fill-rule="evenodd" clip-rule="evenodd" d="M29 10.8726C29.3231 10.9382 29.6575 10.9727 30 10.9727H29V10.8726ZM29 1.07267V0.972656H30C29.6575 0.972656 29.3231 1.00709 29 1.07267ZM372 0.972656H30C32.7614 0.972656 35 3.21123 35 5.97266C35 8.73408 32.7614 10.9727 30 10.9727H372C369.239 10.9727 367 8.73408 367 5.97266C367 3.21123 369.239 0.972656 372 0.972656Z" fill="url(#paint0_linear_522_2576)"/>
<path fill-rule="evenodd" clip-rule="evenodd" d="M29 10.8726C29.3231 10.9382 29.6575 10.9727 30 10.9727H29V10.8726ZM29 1.07267V0.972656H30C29.6575 0.972656 29.3231 1.00709 29 1.07267ZM372 0.972656H30C32.7614 0.972656 35 3.21123 35 5.97266C35 8.73408 32.7614 10.9727 30 10.9727H372C369.239 10.9727 367 8.73408 367 5.97266C367 3.21123 369.239 0.972656 372 0.972656Z" fill="#CAFC5C"/>
</g>
<defs>
<linearGradient id="paint0_linear_522_2576" x1="200.5" y1="0.972656" x2="200.5" y2="10.9727" gradientUnits="userSpaceOnUse">
<stop offset="0.515525" stop-color="#CAFC5C"/>
<stop offset="0.515625"/>
</linearGradient>
<clipPath id="clip0_522_2576">
<rect width="400" height="10" fill="white" transform="translate(0 0.972656)"/>
</clipPath>
</defs>
</svg>
