<?xml version="1.0" standalone="no"?>
<!DOCTYPE svg PUBLIC "-//W3C//DTD SVG 20010904//EN"
 "http://www.w3.org/TR/2001/REC-SVG-20010904/DTD/svg10.dtd">
<svg version="1.0" xmlns="http://www.w3.org/2000/svg"
 width="512.000000pt" height="512.000000pt" viewBox="0 0 512.000000 512.000000"
 preserveAspectRatio="xMidYMid meet">
<metadata>
Created by potrace 1.14, written by Peter Selinger 2001-2017
</metadata>
<g transform="translate(0.000000,512.000000) scale(0.100000,-0.100000)"
fill="#000000" stroke="none">
<path d="M1848 5109 c-143 -10 -274 -31 -392 -65 -636 -181 -1149 -674 -1355
-1300 -92 -280 -105 -452 -98 -1310 5 -667 10 -736 62 -939 66 -252 190 -506
354 -720 68 -90 246 -269 336 -340 188 -147 404 -263 621 -334 280 -92 452
-105 1310 -98 667 5 736 10 939 62 252 66 506 190 720 354 90 68 269 246 340
336 147 188 263 404 334 621 92 280 105 452 98 1310 -4 498 -8 641 -21 730
-107 740 -637 1368 -1352 1603 -156 51 -302 78 -489 91 -174 11 -1235 11
-1407 -1z m2029 -1241 c-267 -609 -345 -1183 -246 -1808 36 -228 126 -540 209
-726 17 -36 30 -67 30 -69 0 -1 -41 15 -91 37 -751 323 -1632 330 -2398 17
-52 -21 -96 -37 -98 -36 -2 2 15 48 37 102 248 609 297 1288 138 1925 -36 145
-115 379 -164 487 -18 41 -28 73 -21 70 135 -57 233 -94 331 -126 551 -178
1139 -199 1704 -60 144 35 382 116 485 164 81 37 91 40 84 23z"/>
</g>
</svg>
