<?xml version="1.0" standalone="no"?>
<!DOCTYPE svg PUBLIC "-//W3C//DTD SVG 20010904//EN"
 "http://www.w3.org/TR/2001/REC-SVG-20010904/DTD/svg10.dtd">
<svg version="1.0" xmlns="http://www.w3.org/2000/svg"
 width="558.000000pt" height="558.000000pt" viewBox="0 0 558.000000 558.000000"
 preserveAspectRatio="xMidYMid meet">
<metadata>
Created by potrace 1.14, written by Peter Selinger 2001-2017
</metadata>
<g transform="translate(0.000000,558.000000) scale(0.100000,-0.100000)"
fill="#000000" stroke="none">
<path d="M1049 5576 c-2 -2 -42 -6 -89 -10 -311 -23 -483 -97 -671 -286 -132
-134 -215 -284 -248 -450 -18 -93 -21 -112 -28 -205 -10 -115 -10 -3552 -1
-3665 27 -314 98 -480 287 -671 63 -64 205 -164 266 -190 17 -6 44 -18 61 -25
32 -14 155 -43 209 -49 17 -2 71 -7 120 -12 112 -10 3534 -11 3665 -1 256 20
424 79 580 203 31 25 150 144 170 171 100 134 162 281 184 439 18 129 21 403
21 1970 0 1578 -3 1838 -21 1960 -30 210 -115 376 -269 530 -74 75 -164 145
-185 145 -4 0 -10 3 -12 8 -6 14 -133 71 -198 87 -85 22 -96 24 -155 30 -27 3
-84 9 -125 14 -69 8 -3552 15 -3561 7z"/>
</g>
</svg>
