<svg width="64" height="64" viewBox="0 0 64 64" fill="none" xmlns="http://www.w3.org/2000/svg">
<rect width="64" height="64" rx="11.4695" fill="#000200"/>
<rect x="2.63943" y="2.63794" width="58.724" height="58.724" rx="22.9391" fill="#CAFC5C"/>
<path fill-rule="evenodd" clip-rule="evenodd" d="M47.2127 16.7896C42.5986 18.9682 37.4421 20.1864 32.0011 20.1864C26.6764 20.1864 21.6242 19.0197 17.0862 16.928C19.2237 21.5064 20.4175 26.6138 20.4175 32C20.4175 37.2724 19.2736 42.2776 17.2205 46.7809C21.7238 44.7279 26.7289 43.5841 32.0011 43.5841C37.3883 43.5841 42.4965 44.7784 47.0756 46.9166C44.9834 42.3781 43.8164 37.3254 43.8164 32C43.8164 26.5594 45.0345 21.4033 47.2127 16.7896Z" fill="black"/>
</svg>
