<svg width="32" height="32" viewBox="0 0 32 32" fill="none" xmlns="http://www.w3.org/2000/svg">
<path d="M14.1176 1.88235C13.5979 1.88235 13.1765 1.46097 13.1765 0.941176C13.1765 0.421379 13.5979 0 14.1176 0H17.8824C18.4021 0 18.8235 0.421379 18.8235 0.941176C18.8235 1.46097 18.4021 1.88235 17.8824 1.88235H14.1176ZM21.4287 2.83258C20.9785 2.57269 20.8243 1.99707 21.0842 1.54691C21.3441 1.09675 21.9197 0.942516 22.3698 1.20241L25.6302 3.08477C26.0803 3.34467 26.2346 3.92028 25.9747 4.37044C25.7148 4.8206 25.1392 4.97484 24.689 4.71494L21.4287 2.83258ZM27.2851 7.31101C27.0252 6.86086 27.1794 6.28524 27.6296 6.02534C28.0797 5.76544 28.6553 5.91968 28.9152 6.36984L30.7976 9.63016C31.0575 10.0803 30.9032 10.6559 30.4531 10.9158C30.0029 11.1757 29.4273 11.0215 29.1674 10.5713L27.2851 7.31101ZM30.1176 14.1176C30.1176 13.5979 30.539 13.1765 31.0588 13.1765C31.5786 13.1765 32 13.5979 32 14.1176V17.8824C32 18.4021 31.5786 18.8235 31.0588 18.8235C30.539 18.8235 30.1176 18.4021 30.1176 17.8824V14.1176ZM29.1674 21.4287C29.4273 20.9785 30.0029 20.8243 30.4531 21.0842C30.9032 21.3441 31.0575 21.9197 30.7976 22.3698L28.9152 25.6302C28.6553 26.0803 28.0797 26.2346 27.6296 25.9747C27.1794 25.7148 27.0252 25.1391 27.2851 24.689L29.1674 21.4287ZM24.689 27.2851C25.1392 27.0252 25.7148 27.1794 25.9747 27.6296C26.2346 28.0797 26.0803 28.6553 25.6302 28.9152L22.3698 30.7976C21.9197 31.0575 21.3441 30.9032 21.0842 30.4531C20.8243 30.0029 20.9785 29.4273 21.4287 29.1674L24.689 27.2851ZM17.8824 30.1176C18.4021 30.1176 18.8235 30.539 18.8235 31.0588C18.8235 31.5786 18.4021 32 17.8824 32H14.1176C13.5979 32 13.1765 31.5786 13.1765 31.0588C13.1765 30.539 13.5979 30.1176 14.1176 30.1176H17.8824ZM10.5713 29.1674C11.0215 29.4273 11.1757 30.0029 10.9158 30.4531C10.6559 30.9032 10.0803 31.0575 9.63017 30.7976L6.36983 28.9152C5.91967 28.6553 5.76543 28.0797 6.02533 27.6296C6.28523 27.1794 6.86085 27.0252 7.31101 27.2851L10.5713 29.1674ZM4.71493 24.689C4.97483 25.1391 4.82061 25.7148 4.37045 25.9747C3.92029 26.2346 3.34467 26.0803 3.08477 25.6302L1.20242 22.3698C0.942523 21.9197 1.09676 21.3441 1.54692 21.0842C1.99708 20.8243 2.57268 20.9785 2.83258 21.4287L4.71493 24.689ZM1.88235 17.8824C1.88235 18.4021 1.46097 18.8235 0.941176 18.8235C0.421379 18.8235 0 18.4021 0 17.8824V14.1176C0 13.5979 0.421379 13.1765 0.941176 13.1765C1.46097 13.1765 1.88235 13.5979 1.88235 14.1176V17.8824ZM2.83258 10.5713C2.57268 11.0215 1.99708 11.1757 1.54692 10.9158C1.09676 10.6559 0.942523 10.0803 1.20242 9.63016L3.08477 6.36984C3.34467 5.91968 3.92029 5.76544 4.37045 6.02534C4.82061 6.28524 4.97483 6.86086 4.71493 7.31101L2.83258 10.5713ZM7.31101 4.71494C6.86085 4.97484 6.28523 4.8206 6.02533 4.37044C5.76543 3.92028 5.91967 3.34467 6.36983 3.08477L9.63017 1.20241C10.0803 0.942516 10.6559 1.09675 10.9158 1.54691C11.1757 1.99707 11.0215 2.57269 10.5713 2.83258L7.31101 4.71494Z" fill="white"/>
<path d="M8.4707 16.0001C8.4707 20.1585 11.8417 23.5295 16.0001 23.5295C20.1585 23.5295 23.5295 20.1585 23.5295 16.0001C23.5295 11.8417 20.1585 8.4707 16.0001 8.4707C11.8417 8.4707 8.4707 11.8417 8.4707 16.0001Z" fill="white"/>
</svg>
