<svg width="32" height="32" viewBox="0 0 32 32" fill="none" xmlns="http://www.w3.org/2000/svg">
<path d="M7.99924 17.2455C6.67699 17.2217 6.16234 17.7522 6.17818 19.0665C6.22569 22.7641 6.22569 26.4537 6.17818 30.1513C6.16234 31.4735 6.68491 31.9882 7.99924 31.9723C13.3358 31.9328 18.6723 31.9328 24.0088 31.9723C25.331 31.9803 25.8457 31.4656 25.8298 30.1513C25.7823 26.4537 25.7823 22.7641 25.8298 19.0665C25.8457 17.7443 25.3231 17.2138 24.0009 17.2455C21.3405 17.3009 10.6675 17.3009 7.99924 17.2455Z" fill="white"/>
<path d="M16.8433 7.63345C17.5717 7.03171 18.1656 6.63582 18.6485 6.12909C19.757 4.98103 19.9708 3.37374 19.274 2.00399C18.6089 0.689653 17.0175 -0.157538 15.5686 0.0245681C14.088 0.206675 12.6944 1.34682 12.4965 2.83534C12.4173 3.445 12.742 4.46638 13.2012 4.71975C14.0246 5.17106 14.0246 3.9359 14.3176 3.07287C14.4759 2.59781 14.7768 2.13859 15.9803 2.01982C17.2313 1.89314 17.6984 2.92244 17.7301 3.22331C17.7855 3.73004 17.7222 4.45055 17.35 4.79101C16.4712 5.60653 14.9114 6.33495 14.8085 7.68096C14.7847 8.02142 14.0484 8.37771 13.6287 8.63108C10.2083 10.6976 6.77203 12.7324 3.35951 14.8069C2.52815 15.3136 1.67305 15.8282 1.00004 16.5092C-0.805186 18.3223 -0.0609253 21.1331 2.38564 21.8694C3.10614 22.0832 4.35714 22.0911 5.236 22.202C5.236 21.3548 5.22016 19.7792 5.22016 19.7792C5.22016 19.7792 2.639 19.7079 2.4569 18.9716C2.26687 18.2273 3.35951 17.6335 3.98501 17.2455C7.63505 14.9731 11.3247 12.7562 15.0539 10.6105C15.5369 10.3334 16.4553 10.3334 16.9383 10.6105C20.5804 12.7008 24.183 14.8623 27.7459 17.0872C28.4585 17.5305 29.6937 18.1164 29.5353 18.9716C29.3928 19.7633 28.0626 19.9533 26.6454 19.8979C26.6454 20.3096 26.6454 21.236 26.6454 21.9248C28.9019 22.3366 31.0239 21.6794 31.7127 20.0404C32.4174 18.354 31.8394 16.7863 29.8283 15.5353C26.0832 13.2154 22.2827 10.9826 18.5139 8.71025C18.0547 8.43314 17.6034 8.12435 16.8433 7.63345Z" fill="white"/>
</svg>
