<svg width="32" height="32" viewBox="0 0 32 32" fill="none" xmlns="http://www.w3.org/2000/svg">
<path d="M16 8.57153C14.5308 8.57153 13.0945 9.00721 11.8729 9.82347C10.6513 10.6397 9.69916 11.7999 9.13691 13.1573C8.57466 14.5147 8.42755 16.0083 8.71418 17.4493C9.00082 18.8903 9.70832 20.214 10.7472 21.2529C11.7861 22.2918 13.1098 22.9993 14.5508 23.2859C15.9918 23.5726 17.4854 23.4255 18.8428 22.8632C20.2002 22.301 21.3604 21.3488 22.1766 20.1272C22.9929 18.9056 23.4286 17.4693 23.4286 16.0001C23.4286 15.0246 23.2364 14.0586 22.8631 13.1573C22.4898 12.256 21.9426 11.4371 21.2528 10.7473C20.563 10.0575 19.7441 9.51032 18.8428 9.137C17.9415 8.76368 16.9756 8.57153 16 8.57153ZM16 20.0001C15.2089 20.0001 14.4355 19.7655 13.7777 19.326C13.1199 18.8865 12.6073 18.2617 12.3045 17.5308C12.0017 16.7999 11.9225 15.9957 12.0769 15.2197C12.2312 14.4438 12.6122 13.7311 13.1716 13.1717C13.731 12.6123 14.4437 12.2313 15.2197 12.077C15.9956 11.9226 16.7998 12.0018 17.5308 12.3046C18.2617 12.6073 18.8864 13.12 19.3259 13.7778C19.7654 14.4356 20 15.209 20 16.0001C20 17.061 19.5786 18.0784 18.8284 18.8285C18.0783 19.5787 17.0609 20.0001 16 20.0001Z" fill="white"/>
<path d="M32 4C32 2.93913 31.5786 1.92172 30.8284 1.17157C30.0783 0.421428 29.0609 0 28 0H22.2857V3.42857H28C28.1515 3.42857 28.2969 3.48878 28.4041 3.59594C28.5112 3.7031 28.5714 3.84845 28.5714 4V9.71429H32V4Z" fill="white"/>
<path d="M28.5714 27.9999C28.5714 28.1515 28.5112 28.2968 28.4041 28.404C28.2969 28.5112 28.1515 28.5714 28 28.5714H22.2857V31.9999H28C29.0609 31.9999 30.0783 31.5785 30.8284 30.8284C31.5786 30.0782 32 29.0608 32 27.9999V22.2856H28.5714V27.9999Z" fill="white"/>
<path d="M0 27.9999C0 29.0608 0.421428 30.0782 1.17157 30.8284C1.92172 31.5785 2.93913 31.9999 4 31.9999H9.71429V28.5714H4C3.84845 28.5714 3.7031 28.5112 3.59594 28.404C3.48878 28.2968 3.42857 28.1515 3.42857 27.9999V22.2856H0V27.9999Z" fill="white"/>
<path d="M0 4V9.71429H3.42857V4C3.42857 3.84845 3.48878 3.7031 3.59594 3.59594C3.7031 3.48878 3.84845 3.42857 4 3.42857H9.71429V0H4C2.93913 0 1.92172 0.421428 1.17157 1.17157C0.421428 1.92172 0 2.93913 0 4Z" fill="white"/>
</svg>
