<svg width="76" height="33" viewBox="0 0 76 33" fill="none" xmlns="http://www.w3.org/2000/svg">
<g clip-path="url(#clip0_509_2231)">
<path fill-rule="evenodd" clip-rule="evenodd" d="M24.3637 0.972656H51.637C52.9423 0.972656 53.9999 1.99918 53.9999 3.26487V30.6788C53.9999 31.9453 52.9431 32.9727 51.637 32.9727H24.3637C23.0585 32.9727 21.9999 31.9461 21.9999 30.6788V3.26487C21.9999 2.00002 23.0585 0.972656 24.3637 0.972656ZM42.0353 18.2324C43.1115 19.104 44.2938 19.6388 45.5578 19.6388C46.3773 19.6359 47.1624 19.3092 47.7421 18.73C48.3217 18.1508 48.649 17.366 48.6526 16.5466C48.6521 15.7255 48.3261 14.9382 47.7459 14.3572C47.1657 13.7763 46.3789 13.4492 45.5578 13.4476C43.2825 13.4476 42.5431 15.6472 42.309 16.9575L42.2972 17.0021L42.0361 18.2316L42.0353 18.2324ZM39.4812 15.3103C40.3966 12.1996 42.6509 10.3082 45.5578 10.3082C48.9886 10.3082 51.781 13.1049 51.7844 16.5331C51.7844 19.9689 48.9911 22.7832 45.5604 22.7832C43.9553 22.7832 42.5557 22.2939 41.338 21.5133L39.9503 28.0581H36.7452L38.6627 19.035C37.7574 17.8948 37.0121 16.6131 36.4041 15.3432V16.7108C36.4041 20.0489 33.6892 22.7891 30.3561 22.7891C27.0223 22.7891 24.3081 20.0489 24.3191 16.7108V8.55918H27.4484V16.7108C27.449 17.4834 27.756 18.2243 28.302 18.7709C28.8481 19.3176 29.5886 19.6254 30.3612 19.627C31.1338 19.6252 31.8743 19.3173 32.4204 18.7707C32.9665 18.2241 33.2738 17.4834 33.2749 16.7108V8.55918H36.4025C37.0231 10.6847 38.0808 13.2076 39.4804 15.3095L39.4812 15.3103Z" fill="black" fill-opacity="0.5"/>
<path d="M9.21605 3.25048C9.93184 2.11617 10.2426 1.05933 10.2426 1.05933C10.2426 1.05933 9.30194 1.37596 8.14658 2.29469C7.09142 3.25301 5.86952 4.92122 5.95542 7.10312C7.53437 5.83406 8.57689 4.47575 9.21605 3.25048ZM3.18742 15.8543L3.12679 16.7461C3.11584 16.9355 3.24468 17.104 3.43415 17.1082C3.61605 17.1233 3.77942 16.9692 3.79037 16.7865L3.85184 15.8972C5.14868 15.1141 6.03879 13.9957 6.59794 12.9987C6.88089 12.4463 7.13352 11.9486 7.31542 11.5915C7.46279 11.2126 7.55879 10.9827 7.55879 10.9827C7.55879 10.9827 6.71584 11.0644 5.67837 11.7414C4.94405 12.3023 3.95794 13.3246 3.59247 14.9532C3.58994 14.9532 3.58826 14.9507 3.58489 14.9507C3.59752 13.2707 3.39458 11.9343 2.97521 10.8724C2.59289 9.61764 2.04047 8.84206 2.04047 8.84206L1.80973 9.63869C1.68763 10.1372 1.52847 10.8202 1.57563 11.6193C1.58573 13.0669 1.94952 14.7637 3.18742 15.8543Z" fill="black" fill-opacity="0.5"/>
<path d="M3.99902 11.2405C3.98358 11.2834 3.97703 11.3291 3.97977 11.3746C3.98251 11.4202 3.99448 11.4647 4.01495 11.5055C4.03543 11.5463 4.06399 11.5825 4.09888 11.6119C4.13378 11.6414 4.1743 11.6634 4.21797 11.6767C4.38976 11.7323 4.56828 11.6203 4.63397 11.4459L4.91355 10.6257C6.3266 10.2013 7.24786 9.26488 8.04786 8.49773C8.39116 8.13132 8.69591 7.73062 8.95733 7.30194C9.1746 6.98951 9.31691 6.80509 9.31691 6.80509C9.31691 6.80509 8.44281 6.64762 7.43902 7.12762C6.60197 7.49309 5.54934 8.23583 4.86218 9.62615L4.84281 9.62025C5.18976 8.08341 5.2007 6.80678 5.06007 5.74994C4.84112 4.44636 4.54218 3.64215 4.54218 3.64215C4.42681 3.52846 2.31481 7.74151 4.26512 10.4464L3.99902 11.2405ZM5.9426 26.8843C6.18765 27.2405 6.64323 27.8889 6.6786 27.8552C6.8167 27.9984 7.03565 28.0135 7.16533 27.883C7.22848 27.8197 7.26465 27.7345 7.26622 27.6451C7.26779 27.5557 7.23464 27.4693 7.17376 27.4038C7.13839 27.4291 6.68112 26.784 6.45039 26.4539C7.64197 22.7268 6.90512 19.7491 7.03481 19.5487C7.03481 19.5487 6.08744 20.0674 5.56955 21.2581C5.01712 22.2973 4.71649 24.2266 5.87607 26.1626C5.86765 26.1685 5.86007 26.171 5.85334 26.1769C5.8407 26.1853 5.83397 26.1988 5.8247 26.2089C4.47312 24.411 3.32112 23.1091 2.24576 22.091C0.974178 20.9752 0.115231 20.4051 0.116073 20.4C0.046178 20.3714 0.298809 22.0741 1.32028 23.8847C2.26091 25.5394 4.02765 26.9584 5.9426 26.8834V26.8843Z" fill="black" fill-opacity="0.5"/>
<path d="M10.102 30.8176L12.2553 32.1675C12.4186 32.277 12.63 32.1928 12.705 32.0303C12.7841 31.8475 12.705 31.6589 12.5509 31.5562L10.4271 30.2189C10.3344 28.1591 9.77948 26.485 9.30706 25.3061C8.86917 23.9974 8.34454 23.1562 8.38075 23.1174C8.38075 23.1174 7.65317 23.9562 7.55717 25.3987C7.34917 26.7553 7.93696 28.7284 9.88896 30.2122C9.87548 30.2265 9.86033 30.2383 9.84854 30.256C7.81569 28.9566 6.01022 28.229 4.60222 27.5932C2.97527 26.9911 1.86033 26.7444 1.86033 26.7444C1.86033 26.7444 2.0119 27.168 2.45822 27.7465C2.91296 28.3023 3.52348 29.0939 4.36559 29.749C5.98664 30.9911 8.24433 31.7296 10.102 30.8176ZM3.56643 21.6867L3.89317 22.8867C3.94622 23.0762 4.12559 23.1882 4.29738 23.1191C4.38257 23.0825 4.45186 23.0166 4.49278 22.9334C4.5337 22.8502 4.54354 22.7551 4.52054 22.6652L4.20727 21.5115C5.40222 20.1313 6.16348 18.6374 6.51464 17.4189C7.04769 16.0892 7.05527 15.0147 7.1159 14.9979C7.1159 14.9979 6.15338 15.2505 5.21696 16.261C4.3479 17.1343 3.45527 18.7823 3.79885 21.0155C3.77527 21.0139 3.75169 21.0088 3.72811 21.013C3.15885 18.8362 2.48096 17.1764 1.79127 15.9317C0.984536 14.5448 0.214009 13.7541 0.214009 13.7541C0.214009 13.7541 0.119694 14.1313 0.136536 14.7621C0.134112 15.5756 0.197193 16.3881 0.325167 17.1915C0.752957 18.9717 1.68685 20.9945 3.56643 21.6867ZM66.7824 3.25048C66.3504 2.5658 66.0058 1.82968 65.7568 1.05933C65.7568 1.05933 66.6974 1.37596 67.8519 2.29554C68.9079 3.25301 70.1298 4.92122 70.0439 7.10312C68.465 5.83406 67.4233 4.47575 66.7841 3.25048H66.7824ZM72.8102 15.8543L72.8717 16.7461C72.8827 16.9355 72.7538 17.104 72.5643 17.1082C72.3824 17.1233 72.2191 16.9692 72.2081 16.7865L72.1467 15.8972C70.8498 15.1141 69.9597 13.9957 69.4005 12.9987C69.1176 12.4463 68.865 11.9486 68.6831 11.5915C68.5357 11.2126 68.4397 10.9827 68.4397 10.9827C68.4397 10.9827 69.2835 11.0644 70.3201 11.7414C71.0536 12.3023 72.0405 13.3246 72.406 14.9532C72.4085 14.9532 72.4102 14.9507 72.4136 14.9507C72.4018 13.2707 72.6039 11.9343 73.0233 10.8724C73.4056 9.61764 73.958 8.84206 73.958 8.84206L74.1888 9.63869C74.3109 10.1372 74.47 10.8202 74.4229 11.6193C74.4128 13.0669 74.049 14.7637 72.8102 15.8543Z" fill="black" fill-opacity="0.5"/>
<path d="M72.0005 11.2405C72.0159 11.2834 72.0224 11.3291 72.0197 11.3746C72.017 11.4202 72.005 11.4647 71.9845 11.5055C71.964 11.5463 71.9355 11.5825 71.9006 11.6119C71.8657 11.6414 71.8252 11.6634 71.7815 11.6767C71.6097 11.7323 71.4312 11.6203 71.3655 11.4459L71.0859 10.6257C69.6729 10.2013 68.7516 9.26488 67.9516 8.49773C67.6083 8.13132 67.3036 7.73062 67.0421 7.30194C66.8249 6.98951 66.6826 6.80509 66.6826 6.80509C66.6826 6.80509 67.5567 6.64762 68.5605 7.12762C69.3975 7.49309 70.4501 8.23583 71.1373 9.62615L71.1567 9.62025C70.8097 8.08341 70.7988 6.80678 70.9394 5.74994C71.1583 4.44636 71.4573 3.64215 71.4573 3.64215C71.5727 3.52846 73.6847 7.74151 71.7343 10.4464L72.0005 11.2405ZM70.0569 26.8843C69.8118 27.2405 69.3562 27.8889 69.3209 27.8552C69.1828 27.9984 68.9638 28.0135 68.8341 27.883C68.771 27.8197 68.7348 27.7345 68.7333 27.6451C68.7317 27.5557 68.7648 27.4693 68.8257 27.4038C68.8611 27.4291 69.3183 26.784 69.5491 26.4539C68.3575 22.7268 69.0943 19.7491 68.9638 19.5487C68.9638 19.5487 69.912 20.0674 70.4291 21.2581C70.9815 22.2973 71.283 24.2266 70.1234 26.1626C70.1318 26.1685 70.1394 26.171 70.1461 26.1769C70.1588 26.1853 70.1647 26.1988 70.1748 26.2089C71.5263 24.411 72.6783 23.1091 73.7537 22.091C75.0253 20.9752 75.8842 20.4051 75.8834 20.4C75.9533 20.3714 75.7007 22.0741 74.6792 23.8847C73.7386 25.5394 71.9718 26.9584 70.0569 26.8834V26.8843Z" fill="black" fill-opacity="0.5"/>
<path d="M65.8975 30.8177L63.7442 32.1676C63.5809 32.2771 63.3695 32.1929 63.2946 32.0304C63.2154 31.8476 63.2946 31.659 63.4487 31.5563L65.5725 30.219C65.6651 28.1592 66.22 26.4851 66.6925 25.3062C67.1303 23.9975 67.655 23.1563 67.6188 23.1175C67.6188 23.1175 68.3464 23.9563 68.4424 25.3988C68.6504 26.7554 68.0626 28.7285 66.1106 30.2123C66.124 30.2266 66.1392 30.2384 66.151 30.256C68.1838 28.9567 69.9893 28.2291 71.3973 27.5933C73.0242 26.9912 74.1392 26.7445 74.1392 26.7445C74.1392 26.7445 73.9876 27.168 73.5413 27.7466C73.0866 28.3024 72.476 29.0939 71.6339 29.7491C70.0129 30.9912 67.7552 31.7297 65.8975 30.8177ZM72.4322 21.6868L72.1063 22.8868C72.0533 23.0763 71.8739 23.1883 71.7021 23.1192C71.617 23.0826 71.5477 23.0167 71.5067 22.9335C71.4658 22.8502 71.456 22.7551 71.479 22.6653L71.7922 21.5116C70.5973 20.1314 69.836 18.6375 69.4849 17.419C68.9518 16.0893 68.9442 15.0148 68.8836 14.9979C68.8836 14.9979 69.8461 15.2506 70.7826 16.2611C71.6516 17.1344 72.5442 18.7824 72.1998 21.0156C72.2242 21.0139 72.2478 21.0089 72.2714 21.0131C72.8407 18.8363 73.5186 17.1765 74.2082 15.9318C75.0158 14.5449 75.7855 13.7542 75.7855 13.7542C75.7855 13.7542 75.8798 14.1314 75.863 14.7622C75.8654 15.5757 75.8023 16.3882 75.6743 17.1916C75.2466 18.9718 74.3118 20.9946 72.4322 21.6868Z" fill="black" fill-opacity="0.5"/>
</g>
<defs>
<clipPath id="clip0_509_2231">
<rect width="75.7895" height="32" fill="white" transform="translate(0.105225 0.972656)"/>
</clipPath>
</defs>
</svg>
